<?xml version="1.0" encoding="UTF-8" ?>
<!DOCTYPE svg PUBLIC "-//W3C//DTD SVG 1.1//EN" "http://www.w3.org/Graphics/SVG/1.1/DTD/svg11.dtd">
<svg viewBox="0 0 255 255" version="1.1" xmlns="http://www.w3.org/2000/svg">
<g id="#404040ff">
</g>
<g id="#deefcfff">
<path fill="#deefcf" opacity="1.00" d=" M 86.10 7.12 C 114.14 -2.56 145.60 -1.98 173.26 8.74 C 196.28 17.45 216.24 33.44 230.72 53.24 C 247.62 76.35 255.93 105.43 254.45 133.97 C 253.15 160.12 243.72 185.88 227.26 206.31 C 220.43 214.72 212.74 222.52 204.03 228.99 C 205.76 222.11 207.28 215.13 207.64 208.02 C 208.58 185.16 199.47 162.06 182.97 146.16 C 174.74 159.25 162.30 169.88 147.42 174.52 C 130.45 180.34 111.14 178.20 95.63 169.30 C 85.51 163.62 77.19 155.00 71.40 144.98 C 57.29 157.47 48.36 175.44 45.91 194.06 C 44.25 205.03 45.56 216.21 48.29 226.90 C 31.06 213.40 17.49 195.24 9.32 174.93 C 0.88 153.51 -1.94 129.78 1.98 107.06 C 8.61 61.59 42.66 21.71 86.10 7.12 M 119.36 64.48 C 106.64 66.52 94.81 73.77 87.26 84.23 C 80.17 93.86 76.77 106.11 77.93 118.02 C 79.09 132.13 86.77 145.51 98.28 153.74 C 107.94 160.76 120.18 164.11 132.07 162.94 C 145.63 161.78 158.53 154.66 166.80 143.86 C 174.82 133.55 178.50 120.00 176.73 107.05 C 174.77 91.00 164.34 76.29 149.83 69.16 C 140.53 64.36 129.67 62.83 119.36 64.48 Z" />
</g>
<g id="#ffffffff">
<path fill="#ffffff" opacity="1.00" d=" M 119.36 64.48 C 129.67 62.83 140.53 64.36 149.83 69.16 C 164.34 76.29 174.77 91.00 176.73 107.05 C 178.50 120.00 174.82 133.55 166.80 143.86 C 158.53 154.66 145.63 161.78 132.07 162.94 C 120.18 164.11 107.94 160.76 98.28 153.74 C 86.77 145.51 79.09 132.13 77.93 118.02 C 76.77 106.11 80.17 93.86 87.26 84.23 C 94.81 73.77 106.64 66.52 119.36 64.48 Z" />
<path fill="#ffffff" opacity="1.00" d=" M 45.91 194.06 C 48.36 175.44 57.29 157.47 71.40 144.98 C 77.19 155.00 85.51 163.62 95.63 169.30 C 111.14 178.20 130.45 180.34 147.42 174.52 C 162.30 169.88 174.74 159.25 182.97 146.16 C 199.47 162.06 208.58 185.16 207.64 208.02 C 207.28 215.13 205.76 222.11 204.03 228.99 C 190.29 239.70 174.11 247.24 157.17 251.23 C 119.76 260.44 78.25 251.47 48.33 227.09 L 48.29 226.90 C 45.56 216.21 44.25 205.03 45.91 194.06 Z" />
</g>
</svg>
