<?xml version="1.0" encoding="UTF-8" ?>
<!DOCTYPE svg PUBLIC "-//W3C//DTD SVG 1.1//EN" "http://www.w3.org/Graphics/SVG/1.1/DTD/svg11.dtd">
<svg width="1026pt" height="1313pt" viewBox="0 0 1026 1313" version="1.1" xmlns="http://www.w3.org/2000/svg">
<g id="#7ab94fff">
</g>
<g id="#ffffffff">
<path fill="#ffffff" opacity="1.00" d=" M 247.07 44.61 C 266.11 42.96 285.45 44.41 304.02 48.93 C 320.45 52.93 336.67 61.38 346.25 75.77 C 355.34 88.83 357.95 104.99 359.41 120.50 C 360.89 149.51 357.13 178.39 355.31 207.29 C 352.97 233.53 351.92 260.17 344.64 285.64 C 340.04 301.72 331.06 317.66 315.95 325.92 C 310.13 329.54 303.36 330.85 297.01 333.13 C 296.56 334.40 296.31 335.73 296.10 337.06 C 291.78 367.38 287.44 397.70 283.10 428.02 C 281.60 436.75 281.08 445.69 278.95 454.29 C 275.34 453.44 272.01 451.77 268.58 450.43 C 242.11 439.86 215.67 429.22 189.20 418.69 C 188.56 416.86 189.12 414.88 189.22 413.01 C 191.20 396.90 192.71 380.74 194.56 364.62 C 196.25 352.65 196.81 340.56 198.55 328.60 C 198.91 325.44 199.42 322.27 199.25 319.08 C 196.57 316.29 193.20 314.26 190.54 311.45 C 179.67 301.04 173.75 286.48 171.14 271.89 C 168.75 260.10 168.55 247.99 168.90 236.02 C 169.20 214.28 172.71 192.76 173.78 171.07 C 175.22 152.06 174.88 132.89 178.01 114.04 C 180.52 96.28 185.93 77.90 198.74 64.74 C 211.22 51.69 229.43 45.84 247.07 44.61 M 263.33 73.33 C 251.52 74.57 240.39 80.71 233.01 90.00 C 224.36 100.61 220.99 115.34 224.29 128.64 C 228.42 147.41 245.78 162.30 265.02 163.31 C 278.13 164.28 291.61 159.23 300.66 149.64 C 310.90 139.31 315.45 123.76 312.51 109.53 C 310.68 99.98 305.67 91.10 298.38 84.66 C 289.02 76.12 275.91 71.87 263.33 73.33 M 257.32 170.34 C 245.59 172.96 236.43 183.94 236.18 196.00 C 235.60 205.59 240.53 215.24 248.64 220.39 C 256.21 225.39 266.32 226.37 274.63 222.62 C 287.06 217.55 294.25 202.60 290.31 189.73 C 286.64 175.91 271.25 166.63 257.32 170.34 M 254.35 243.37 C 239.49 245.29 227.79 260.07 229.76 275.01 C 230.98 290.72 246.92 303.29 262.49 300.58 C 274.97 299.06 285.47 288.44 287.06 276.00 C 288.91 264.15 282.35 251.69 271.68 246.31 C 266.36 243.69 260.24 242.49 254.35 243.37 Z" />
<path fill="#ffffff" opacity="1.00" d=" M 677.21 330.28 C 734.83 320.57 792.46 310.91 850.07 301.13 C 851.62 301.05 853.36 300.31 854.85 301.11 C 857.63 313.48 859.14 326.12 861.43 338.59 C 878.56 440.13 895.66 541.69 912.75 643.24 C 916.85 668.86 921.77 694.37 925.44 720.05 C 921.90 721.54 917.96 721.53 914.24 722.30 C 827.24 737.01 740.20 751.59 653.20 766.32 C 652.25 766.45 651.31 766.53 650.37 766.55 C 646.99 753.49 641.53 740.98 634.62 729.40 C 620.18 704.43 599.42 682.50 573.34 669.64 C 540.14 653.45 499.74 654.05 466.33 669.34 C 437.14 682.87 416.08 709.52 403.51 738.56 C 393.49 761.59 387.81 786.33 385.27 811.26 C 374.26 813.58 363.06 814.99 351.99 817.04 C 346.50 817.86 340.48 819.39 335.26 816.72 C 331.59 814.92 330.00 810.83 328.85 807.17 C 325.57 794.02 326.30 780.36 324.76 766.98 C 324.98 759.27 322.95 751.73 323.30 744.02 C 322.16 732.54 321.96 720.99 321.42 709.47 C 319.92 699.92 320.37 690.22 319.49 680.61 C 317.85 657.41 317.05 634.18 315.64 610.98 C 315.86 604.44 314.30 597.09 318.34 591.37 C 322.58 585.35 329.96 582.68 336.79 580.82 C 354.36 576.81 372.19 574.13 389.92 570.93 C 433.34 563.28 476.95 556.63 520.26 548.34 C 525.81 547.25 531.88 546.27 535.92 541.90 C 545.98 532.01 553.66 520.03 561.26 508.23 C 589.70 462.58 613.59 414.34 639.09 367.05 C 644.99 356.18 651.77 345.33 661.83 337.82 C 666.36 334.28 671.50 331.33 677.21 330.28 M 812.39 346.41 C 780.40 351.76 748.41 357.11 716.41 362.43 C 709.53 363.96 701.48 363.81 696.23 369.23 C 687.60 378.58 680.63 389.34 674.43 400.42 C 652.51 440.02 630.52 479.60 609.78 519.83 C 607.20 524.21 608.02 530.75 612.92 533.12 C 617.03 535.77 621.98 534.37 626.39 533.48 C 695.79 521.88 765.18 510.21 834.58 498.59 C 839.00 497.71 844.02 497.75 847.59 494.61 C 851.11 491.45 854.41 487.03 853.69 482.02 C 846.50 440.79 839.83 399.44 832.71 358.20 C 830.67 349.66 820.57 345.06 812.39 346.41 Z" />
<path fill="#ffffff" opacity="1.00" d=" M 417.36 303.31 C 417.93 303.28 419.06 303.20 419.63 303.17 C 419.69 350.77 418.91 398.39 418.95 446.00 C 418.54 471.33 418.71 496.67 418.63 522.00 C 418.57 525.77 418.92 529.58 418.39 533.34 C 417.66 534.53 416.17 534.66 414.96 534.98 C 403.33 537.05 391.68 538.99 380.08 541.21 C 378.36 541.41 376.44 542.06 374.88 540.98 C 375.52 529.22 377.52 517.56 378.66 505.83 C 381.99 477.44 385.29 449.04 388.57 420.64 C 389.08 416.02 389.90 411.43 389.88 406.77 C 388.21 409.36 387.24 412.29 386.12 415.13 C 369.87 455.22 353.61 495.31 337.41 535.42 C 336.31 537.70 335.92 540.57 333.97 542.31 C 315.13 539.79 296.38 536.38 277.59 533.43 C 271.40 532.52 265.26 531.17 259.01 530.78 C 271.11 559.70 284.30 588.19 296.62 617.02 C 296.28 618.09 295.67 619.05 295.07 620.01 C 265.28 662.24 235.66 704.61 205.89 746.86 C 204.14 749.33 202.14 751.70 201.11 754.59 C 221.96 757.69 242.76 761.18 263.60 764.44 C 268.95 765.50 274.46 765.80 279.73 767.23 C 280.07 769.07 279.91 770.95 279.68 772.80 C 274.30 810.09 269.55 847.48 264.18 884.77 C 266.83 883.31 269.19 881.41 271.56 879.57 C 288.49 866.49 305.51 853.53 322.44 840.46 C 323.87 839.32 325.58 838.57 327.43 838.52 C 338.29 838.04 349.19 837.85 360.03 836.82 C 361.71 836.70 363.40 836.74 365.08 837.00 C 365.36 838.44 364.63 839.66 363.67 840.68 C 316.24 893.91 268.82 947.15 221.42 1000.40 C 220.53 1001.43 219.45 1002.29 217.99 1002.09 C 217.28 996.75 218.71 991.43 218.65 986.09 C 218.90 972.02 220.44 958.03 220.97 943.98 C 222.10 930.99 222.04 917.93 223.21 904.95 C 223.20 896.28 224.71 887.71 224.74 879.05 C 226.11 859.36 226.62 839.61 228.17 819.93 C 228.11 818.73 228.48 816.39 226.61 816.54 C 192.33 813.82 158.14 810.04 123.86 807.23 C 115.39 806.16 106.83 805.70 98.38 804.55 C 97.82 803.29 98.45 802.14 99.19 801.16 C 142.77 743.08 186.29 684.96 229.86 626.88 C 231.54 624.57 233.58 622.47 234.78 619.85 C 234.64 618.30 234.14 616.82 233.68 615.36 C 212.82 553.81 192.15 492.19 171.31 430.64 C 170.85 428.92 169.73 426.91 171.08 425.31 C 184.15 430.23 196.90 435.98 209.85 441.21 C 248.00 457.09 286.15 472.96 324.30 488.83 C 325.09 489.14 325.91 489.38 326.75 489.58 C 341.62 459.74 355.88 429.57 370.54 399.61 C 386.18 367.54 401.51 335.28 417.36 303.31 Z" />
<path fill="#ffffff" opacity="1.00" d=" M 180.28 504.30 C 181.78 503.79 182.09 505.30 182.53 506.37 C 195.69 543.54 209.44 580.54 222.47 617.74 C 202.70 641.19 182.90 664.64 163.26 688.20 C 161.85 689.38 161.03 692.55 158.97 692.07 C 158.90 690.68 158.92 689.30 159.06 687.93 C 165.72 629.62 172.14 571.31 178.69 512.98 C 179.21 510.12 178.59 506.81 180.28 504.30 Z" />
<path fill="#ffffff" opacity="1.00" d=" M 503.41 683.50 C 518.40 681.68 533.88 682.16 548.43 686.51 C 577.06 694.71 601.94 715.35 614.77 742.30 C 629.55 772.11 629.01 808.97 613.34 838.33 C 599.56 864.80 574.23 885.03 545.20 892.15 C 514.89 900.02 481.23 893.62 456.08 874.92 C 434.65 859.40 419.41 835.59 414.39 809.60 C 412.15 799.57 412.43 789.22 412.82 779.02 C 415.73 744.42 437.08 712.04 467.62 695.56 C 478.67 689.33 490.88 685.36 503.41 683.50 Z" />
<path fill="#ffffff" opacity="1.00" d=" M 142.03 827.00 C 143.35 826.84 144.66 826.81 145.99 826.91 C 165.00 828.60 184.02 830.27 203.04 832.03 C 205.24 832.27 207.48 832.49 209.60 833.21 C 210.05 838.06 209.13 842.88 208.66 847.70 C 207.93 855.78 207.97 863.93 206.95 871.99 C 205.87 880.96 206.11 890.03 204.95 898.99 C 203.90 907.63 204.10 916.36 203.06 925.01 C 201.83 934.62 202.14 944.36 200.82 953.96 C 200.06 959.18 200.61 964.52 199.67 969.72 C 197.99 971.68 195.14 970.00 192.99 969.97 C 173.72 967.08 153.20 966.21 134.89 973.98 C 133.18 974.42 131.38 975.91 129.60 975.29 C 128.95 968.47 130.67 961.68 131.55 954.95 C 132.96 932.84 135.21 910.80 136.65 888.69 C 137.95 879.50 137.87 870.20 138.94 860.99 C 140.37 849.70 139.99 838.21 142.03 827.00 Z" />
<path fill="#ffffff" opacity="1.00" d=" M 909.23 924.38 C 921.04 924.31 932.87 924.28 944.69 924.40 C 944.02 937.61 943.55 950.83 943.60 964.06 C 942.89 976.05 942.59 988.05 942.60 1000.06 C 941.85 1012.70 941.63 1025.36 941.57 1038.02 C 940.74 1050.29 940.69 1062.61 940.54 1074.91 C 939.56 1087.68 939.93 1100.51 939.38 1113.28 C 937.38 1114.14 935.10 1113.68 933.00 1113.80 C 926.72 1113.58 920.44 1113.99 914.17 1113.68 C 913.06 1108.53 913.43 1103.23 913.36 1098.02 C 913.43 1084.67 912.14 1071.36 912.33 1058.02 C 912.29 1046.67 911.18 1035.36 911.35 1024.02 C 911.33 1011.01 910.11 998.03 910.32 985.02 C 909.64 969.01 909.86 952.99 908.96 936.99 C 909.13 932.81 907.95 928.41 909.23 924.38 Z" />
<path fill="#ffffff" opacity="1.00" d=" M 158.92 995.77 C 173.47 993.84 188.70 993.81 202.83 998.13 C 202.87 1006.72 202.43 1015.32 201.78 1023.89 C 180.88 1014.13 153.40 1015.81 136.33 1032.31 C 121.82 1045.78 115.39 1065.72 113.85 1085.01 C 112.83 1102.18 115.48 1119.98 123.84 1135.20 C 129.39 1145.43 137.44 1154.62 147.79 1160.18 C 164.48 1169.32 185.89 1168.79 202.33 1159.32 C 212.77 1153.41 220.63 1143.77 226.19 1133.28 C 234.17 1117.71 236.77 1099.78 235.42 1082.45 C 233.41 1067.48 229.20 1052.26 219.88 1040.10 C 217.81 1037.25 215.03 1034.97 213.17 1031.98 C 215.59 1028.82 218.89 1026.51 221.68 1023.71 C 225.40 1020.43 228.75 1016.75 232.62 1013.65 C 233.58 1012.57 234.73 1013.89 235.54 1014.44 C 248.48 1025.27 257.97 1040.00 262.87 1056.12 C 267.00 1070.04 268.90 1084.74 267.53 1099.24 C 266.79 1115.65 262.74 1132.12 254.29 1146.31 C 244.97 1161.64 231.16 1174.46 214.57 1181.53 C 194.05 1190.77 170.41 1192.81 148.60 1187.33 C 128.57 1182.54 110.30 1170.45 98.46 1153.56 C 88.60 1139.66 83.79 1122.82 82.00 1106.04 C 80.28 1092.52 81.82 1078.84 84.59 1065.58 C 88.51 1047.65 97.40 1030.47 111.32 1018.29 C 124.49 1006.27 141.31 998.43 158.92 995.77 Z" />
<path fill="#ffffff" opacity="1.00" d=" M 361.71 999.69 C 380.82 993.19 402.05 992.77 421.36 998.67 C 436.07 1003.14 448.14 1013.82 456.64 1026.37 C 463.42 1036.21 466.94 1047.84 469.50 1059.39 C 472.09 1071.41 471.65 1083.85 470.81 1096.04 C 461.91 1096.78 452.94 1096.12 444.01 1096.34 C 407.43 1096.34 370.84 1096.35 334.27 1096.33 C 333.68 1104.58 335.19 1112.82 337.14 1120.82 C 339.92 1132.32 345.71 1143.42 354.93 1151.07 C 365.29 1159.99 378.61 1164.94 392.08 1166.55 C 406.24 1167.23 420.58 1166.71 434.43 1163.44 C 441.39 1162.05 447.95 1159.29 454.76 1157.41 C 456.88 1164.42 459.39 1171.40 460.64 1178.63 C 441.39 1187.44 419.92 1189.65 398.98 1190.34 C 379.57 1190.34 359.52 1186.63 342.95 1176.05 C 326.83 1166.08 314.97 1149.97 308.94 1132.11 C 300.64 1106.66 301.57 1078.51 310.24 1053.27 C 318.52 1029.11 337.25 1008.06 361.71 999.69 M 380.07 1018.05 C 368.54 1020.04 357.43 1025.89 350.44 1035.45 C 342.17 1046.69 335.93 1060.01 334.98 1074.06 C 339.96 1074.67 344.99 1074.24 350.00 1074.34 C 370.00 1074.34 390.00 1074.34 410.00 1074.34 C 420.03 1074.14 430.09 1074.72 440.10 1074.08 C 440.70 1069.62 439.99 1065.14 439.27 1060.76 C 437.84 1053.00 435.74 1045.18 431.50 1038.45 C 426.77 1031.01 420.20 1024.49 412.00 1020.99 C 401.96 1016.89 390.69 1015.95 380.07 1018.05 Z" />
<path fill="#ffffff" opacity="1.00" d=" M 581.05 1002.13 C 595.91 995.07 612.83 993.54 629.04 995.11 C 641.18 996.67 653.15 1000.71 663.25 1007.73 C 678.14 1017.84 688.99 1033.22 694.85 1050.15 C 700.75 1067.74 702.48 1086.63 700.28 1105.04 C 698.11 1125.22 691.99 1145.87 678.29 1161.32 C 666.04 1174.89 649.59 1184.85 631.61 1188.55 C 608.92 1193.03 583.65 1189.46 565.18 1174.81 C 560.07 1171.03 556.32 1165.88 552.26 1161.09 C 552.39 1191.72 552.27 1222.36 552.34 1253.00 C 552.33 1256.27 552.49 1259.57 552.01 1262.83 C 541.66 1263.01 531.29 1263.02 520.95 1262.82 C 520.22 1253.91 520.86 1244.93 520.65 1236.00 C 520.65 1177.00 520.65 1118.00 520.65 1059.00 C 520.55 1049.02 520.89 1039.03 520.20 1029.06 C 519.60 1019.09 519.86 1009.09 519.11 999.14 C 528.65 998.79 538.25 998.77 547.80 999.13 C 548.29 1009.40 549.07 1019.66 549.43 1029.93 C 551.63 1028.57 552.48 1025.94 554.05 1024.00 C 561.13 1014.70 570.43 1007.06 581.05 1002.13 M 602.38 1019.44 C 590.79 1021.00 579.55 1025.93 571.15 1034.16 C 560.50 1044.63 553.04 1058.85 552.33 1073.92 C 552.27 1082.61 552.34 1091.30 552.32 1100.00 C 552.43 1107.54 551.77 1115.19 553.45 1122.63 C 555.32 1132.73 559.75 1142.59 567.25 1149.76 C 575.21 1157.29 585.17 1162.82 595.93 1165.08 C 607.36 1167.37 619.46 1166.42 630.41 1162.42 C 642.79 1158.03 652.80 1148.29 658.81 1136.73 C 667.11 1121.62 669.28 1104.00 668.99 1086.99 C 668.48 1067.63 661.71 1047.96 648.11 1033.88 C 636.28 1022.17 618.68 1017.39 602.38 1019.44 Z" />
<path fill="#ffffff" opacity="1.00" d=" M 790.08 996.10 C 809.29 992.80 829.65 994.52 847.57 1002.48 C 849.79 1003.47 852.07 1004.49 853.90 1006.15 C 851.57 1013.49 848.19 1020.46 845.48 1027.67 C 844.04 1027.94 842.77 1027.09 841.54 1026.53 C 832.14 1021.46 821.67 1018.07 810.94 1017.68 C 802.95 1017.33 794.58 1017.51 787.26 1021.14 C 778.52 1025.15 772.04 1034.20 772.19 1043.97 C 771.78 1051.32 775.04 1058.69 780.88 1063.19 C 796.26 1075.44 816.44 1078.68 832.82 1089.19 C 844.85 1096.31 855.65 1107.03 859.02 1121.00 C 862.52 1136.80 860.19 1154.80 849.35 1167.38 C 839.12 1179.85 823.39 1186.35 807.79 1188.79 C 783.63 1192.69 757.99 1189.18 736.32 1177.63 C 736.59 1174.33 738.18 1171.35 739.33 1168.30 C 741.14 1164.02 742.48 1159.55 744.46 1155.35 C 745.69 1155.03 746.85 1155.61 747.95 1156.14 C 763.55 1164.13 781.37 1168.89 798.97 1166.78 C 807.52 1165.66 816.44 1163.00 822.49 1156.51 C 830.59 1148.59 832.10 1135.53 827.61 1125.39 C 824.79 1118.94 819.25 1114.18 813.34 1110.63 C 803.18 1104.39 791.57 1101.22 780.85 1096.17 C 768.07 1090.24 755.63 1082.14 747.94 1070.05 C 738.24 1055.07 740.18 1034.50 750.19 1020.18 C 759.32 1006.94 774.41 998.74 790.08 996.10 Z" />
<path fill="#ffffff" opacity="1.00" d=" M 920.33 1147.32 C 926.83 1145.83 934.24 1146.22 939.85 1150.16 C 951.18 1157.84 952.04 1176.74 941.41 1185.38 C 935.01 1190.58 925.78 1191.54 918.11 1188.88 C 909.66 1185.88 904.20 1176.82 904.79 1167.97 C 904.82 1158.66 911.16 1149.64 920.33 1147.32 Z" />
</g>
<g id="#ffaa6eff">
<path fill="#ffaa6e" opacity="1.00" d=" M 263.33 73.33 C 275.91 71.87 289.02 76.12 298.38 84.66 C 305.67 91.10 310.68 99.98 312.51 109.53 C 315.45 123.76 310.90 139.31 300.66 149.64 C 291.61 159.23 278.13 164.28 265.02 163.31 C 245.78 162.30 228.42 147.41 224.29 128.64 C 220.99 115.34 224.36 100.61 233.01 90.00 C 240.39 80.71 251.52 74.57 263.33 73.33 M 262.34 90.38 C 249.34 93.27 239.20 105.61 239.08 118.97 C 238.41 133.58 249.96 147.33 264.36 149.55 C 276.54 151.69 289.70 145.32 295.50 134.38 C 299.90 126.68 300.52 116.96 297.26 108.73 C 295.14 103.07 290.93 98.45 286.16 94.87 C 279.35 90.02 270.44 88.58 262.34 90.38 Z" />
</g>
<g id="#c57b22ff">
<path fill="#c57b22" opacity="1.00" d=" M 262.34 90.38 C 270.44 88.58 279.35 90.02 286.16 94.87 C 290.93 98.45 295.14 103.07 297.26 108.73 C 300.52 116.96 299.90 126.68 295.50 134.38 C 289.70 145.32 276.54 151.69 264.36 149.55 C 249.96 147.33 238.41 133.58 239.08 118.97 C 239.20 105.61 249.34 93.27 262.34 90.38 Z" />
</g>
</svg>
